# xmcd CD database file
#
# Track frame offsets:
#	150
#	16950
#	28425
#	48225
#	60750
#	79200
#	94650
#	112350
#	132075
#	147825
#	159000
#	176700
#	192525
#	204825
#	218025
#	232425
#	246075
#	259650
#
# Disc length: 3685 seconds
#
# Revision: 0
# Processed by: cddbd v1.5.2PL0 Copyright (c) Steve Scherf et al.
# Submitted via: CDex 1.51
#
DISCID=fd0e6312
DTITLE=Various Artist - Nejvetsi country hity
DYEAR=2005
DGENRE=Country
TTITLE0=Hrac
TTITLE1=Dama pri tele
TTITLE2=Lady
TTITLE3=Nebe, peklo, raj
TTITLE4=O, pane nas
TTITLE5=Mas ho akorat
TTITLE6=Jen mou vinou
TTITLE7=Nejsi ma
TTITLE8=Holka s bilou halenou
TTITLE9=Nehralo se o ceny
TTITLE10=Zavidim
TTITLE11=Kilimandzaro
TTITLE12=Zvednete kotvy
TTITLE13=Vitam vas
TTITLE14=Pole s bavlnou
TTITLE15=Tom Dooley
TTITLE16=Vzpominka
TTITLE17=Dam si pres rameno pingl
EXTD=YEAR: 2005
EXTT0=
EXTT1=
EXTT2=
EXTT3=
EXTT4=
EXTT5=
EXTT6=
EXTT7=
EXTT8=
EXTT9=
EXTT10=
EXTT11=
EXTT12=
EXTT13=
EXTT14=
EXTT15=
EXTT16=
EXTT17=
PLAYORDER=
